<mxfile host="Electron" modified="2023-10-30T05:23:10.049Z" agent="Mozilla/5.0 (Windows NT 10.0; Win64; x64) AppleWebKit/537.36 (KHTML, like Gecko) draw.io/22.0.2 Chrome/114.0.5735.289 Electron/25.8.4 Safari/537.36" etag="a2Pkg0ry8i5-Mp2oPdo5" version="22.0.2" type="device">
  <diagram name="Page-1" id="2YBvvXClWsGukQMizWep">
    <mxGraphModel dx="1195" dy="712" grid="1" gridSize="10" guides="1" tooltips="1" connect="1" arrows="1" fold="1" page="1" pageScale="1" pageWidth="850" pageHeight="1100" math="0" shadow="0">
      <root>
        <mxCell id="0" />
        <mxCell id="1" parent="0" />
        <mxCell id="hzOA_SDY9-3CmLK2Qblx-31" value="" style="rounded=0;whiteSpace=wrap;html=1;dashed=1;dashPattern=1 4;" vertex="1" parent="1">
          <mxGeometry x="20" y="460" width="750" height="200" as="geometry" />
        </mxCell>
        <mxCell id="aM9ryv3xv72pqoxQDRHE-1" value="User" style="shape=umlLifeline;perimeter=lifelinePerimeter;whiteSpace=wrap;html=1;container=0;dropTarget=0;collapsible=0;recursiveResize=0;outlineConnect=0;portConstraint=eastwest;newEdgeStyle={&quot;edgeStyle&quot;:&quot;elbowEdgeStyle&quot;,&quot;elbow&quot;:&quot;vertical&quot;,&quot;curved&quot;:0,&quot;rounded&quot;:0};" parent="1" vertex="1">
          <mxGeometry x="100" y="120" width="100" height="560" as="geometry" />
        </mxCell>
        <mxCell id="aM9ryv3xv72pqoxQDRHE-2" value="" style="html=1;points=[];perimeter=orthogonalPerimeter;outlineConnect=0;targetShapes=umlLifeline;portConstraint=eastwest;newEdgeStyle={&quot;edgeStyle&quot;:&quot;elbowEdgeStyle&quot;,&quot;elbow&quot;:&quot;vertical&quot;,&quot;curved&quot;:0,&quot;rounded&quot;:0};" parent="aM9ryv3xv72pqoxQDRHE-1" vertex="1">
          <mxGeometry x="45" y="70" width="10" height="60" as="geometry" />
        </mxCell>
        <mxCell id="aM9ryv3xv72pqoxQDRHE-4" value="" style="html=1;points=[];perimeter=orthogonalPerimeter;outlineConnect=0;targetShapes=umlLifeline;portConstraint=eastwest;newEdgeStyle={&quot;edgeStyle&quot;:&quot;elbowEdgeStyle&quot;,&quot;elbow&quot;:&quot;vertical&quot;,&quot;curved&quot;:0,&quot;rounded&quot;:0};" parent="aM9ryv3xv72pqoxQDRHE-1" vertex="1">
          <mxGeometry x="45" y="160" width="10" height="140" as="geometry" />
        </mxCell>
        <mxCell id="hzOA_SDY9-3CmLK2Qblx-30" value="" style="html=1;points=[];perimeter=orthogonalPerimeter;outlineConnect=0;targetShapes=umlLifeline;portConstraint=eastwest;newEdgeStyle={&quot;edgeStyle&quot;:&quot;elbowEdgeStyle&quot;,&quot;elbow&quot;:&quot;vertical&quot;,&quot;curved&quot;:0,&quot;rounded&quot;:0};" vertex="1" parent="aM9ryv3xv72pqoxQDRHE-1">
          <mxGeometry x="45" y="430" width="10" height="60" as="geometry" />
        </mxCell>
        <mxCell id="aM9ryv3xv72pqoxQDRHE-5" value="System" style="shape=umlLifeline;perimeter=lifelinePerimeter;whiteSpace=wrap;html=1;container=0;dropTarget=0;collapsible=0;recursiveResize=0;outlineConnect=0;portConstraint=eastwest;newEdgeStyle={&quot;edgeStyle&quot;:&quot;elbowEdgeStyle&quot;,&quot;elbow&quot;:&quot;vertical&quot;,&quot;curved&quot;:0,&quot;rounded&quot;:0};" parent="1" vertex="1">
          <mxGeometry x="640" y="120" width="100" height="560" as="geometry" />
        </mxCell>
        <mxCell id="aM9ryv3xv72pqoxQDRHE-6" value="" style="html=1;points=[];perimeter=orthogonalPerimeter;outlineConnect=0;targetShapes=umlLifeline;portConstraint=eastwest;newEdgeStyle={&quot;edgeStyle&quot;:&quot;elbowEdgeStyle&quot;,&quot;elbow&quot;:&quot;vertical&quot;,&quot;curved&quot;:0,&quot;rounded&quot;:0};" parent="aM9ryv3xv72pqoxQDRHE-5" vertex="1">
          <mxGeometry x="45" y="270" width="10" height="80" as="geometry" />
        </mxCell>
        <mxCell id="hzOA_SDY9-3CmLK2Qblx-23" value="" style="html=1;points=[];perimeter=orthogonalPerimeter;outlineConnect=0;targetShapes=umlLifeline;portConstraint=eastwest;newEdgeStyle={&quot;edgeStyle&quot;:&quot;elbowEdgeStyle&quot;,&quot;elbow&quot;:&quot;vertical&quot;,&quot;curved&quot;:0,&quot;rounded&quot;:0};" vertex="1" parent="aM9ryv3xv72pqoxQDRHE-5">
          <mxGeometry x="45" y="370" width="10" height="130" as="geometry" />
        </mxCell>
        <mxCell id="hzOA_SDY9-3CmLK2Qblx-3" value="Home screen" style="shape=umlLifeline;perimeter=lifelinePerimeter;whiteSpace=wrap;html=1;container=0;dropTarget=0;collapsible=0;recursiveResize=0;outlineConnect=0;portConstraint=eastwest;newEdgeStyle={&quot;edgeStyle&quot;:&quot;elbowEdgeStyle&quot;,&quot;elbow&quot;:&quot;vertical&quot;,&quot;curved&quot;:0,&quot;rounded&quot;:0};" vertex="1" parent="1">
          <mxGeometry x="280" y="120" width="100" height="560" as="geometry" />
        </mxCell>
        <mxCell id="hzOA_SDY9-3CmLK2Qblx-4" value="" style="html=1;points=[];perimeter=orthogonalPerimeter;outlineConnect=0;targetShapes=umlLifeline;portConstraint=eastwest;newEdgeStyle={&quot;edgeStyle&quot;:&quot;elbowEdgeStyle&quot;,&quot;elbow&quot;:&quot;vertical&quot;,&quot;curved&quot;:0,&quot;rounded&quot;:0};" vertex="1" parent="hzOA_SDY9-3CmLK2Qblx-3">
          <mxGeometry x="45" y="70" width="10" height="70" as="geometry" />
        </mxCell>
        <mxCell id="hzOA_SDY9-3CmLK2Qblx-27" value="" style="html=1;points=[];perimeter=orthogonalPerimeter;outlineConnect=0;targetShapes=umlLifeline;portConstraint=eastwest;newEdgeStyle={&quot;edgeStyle&quot;:&quot;elbowEdgeStyle&quot;,&quot;elbow&quot;:&quot;vertical&quot;,&quot;curved&quot;:0,&quot;rounded&quot;:0};" vertex="1" parent="hzOA_SDY9-3CmLK2Qblx-3">
          <mxGeometry x="45" y="350" width="10" height="60" as="geometry" />
        </mxCell>
        <mxCell id="hzOA_SDY9-3CmLK2Qblx-5" style="edgeStyle=elbowEdgeStyle;rounded=0;orthogonalLoop=1;jettySize=auto;html=1;elbow=vertical;curved=0;dashed=1;" edge="1" parent="1" source="aM9ryv3xv72pqoxQDRHE-2" target="hzOA_SDY9-3CmLK2Qblx-3">
          <mxGeometry relative="1" as="geometry" />
        </mxCell>
        <mxCell id="hzOA_SDY9-3CmLK2Qblx-6" value="Acesses website&lt;br&gt;click search" style="edgeLabel;html=1;align=center;verticalAlign=middle;resizable=0;points=[];" vertex="1" connectable="0" parent="hzOA_SDY9-3CmLK2Qblx-5">
          <mxGeometry x="-0.1691" y="2" relative="1" as="geometry">
            <mxPoint x="13" y="2" as="offset" />
          </mxGeometry>
        </mxCell>
        <mxCell id="hzOA_SDY9-3CmLK2Qblx-7" value="Searching bar" style="shape=umlLifeline;perimeter=lifelinePerimeter;whiteSpace=wrap;html=1;container=0;dropTarget=0;collapsible=0;recursiveResize=0;outlineConnect=0;portConstraint=eastwest;newEdgeStyle={&quot;edgeStyle&quot;:&quot;elbowEdgeStyle&quot;,&quot;elbow&quot;:&quot;vertical&quot;,&quot;curved&quot;:0,&quot;rounded&quot;:0};" vertex="1" parent="1">
          <mxGeometry x="450" y="120" width="100" height="560" as="geometry" />
        </mxCell>
        <mxCell id="hzOA_SDY9-3CmLK2Qblx-8" value="" style="html=1;points=[];perimeter=orthogonalPerimeter;outlineConnect=0;targetShapes=umlLifeline;portConstraint=eastwest;newEdgeStyle={&quot;edgeStyle&quot;:&quot;elbowEdgeStyle&quot;,&quot;elbow&quot;:&quot;vertical&quot;,&quot;curved&quot;:0,&quot;rounded&quot;:0};" vertex="1" parent="hzOA_SDY9-3CmLK2Qblx-7">
          <mxGeometry x="45" y="85" width="10" height="255" as="geometry" />
        </mxCell>
        <mxCell id="hzOA_SDY9-3CmLK2Qblx-9" style="edgeStyle=elbowEdgeStyle;rounded=0;orthogonalLoop=1;jettySize=auto;html=1;elbow=vertical;curved=0;" edge="1" parent="1">
          <mxGeometry relative="1" as="geometry">
            <mxPoint x="335" y="229.99666666666675" as="sourcePoint" />
            <mxPoint x="500" y="240" as="targetPoint" />
            <Array as="points">
              <mxPoint x="420" y="240" />
            </Array>
          </mxGeometry>
        </mxCell>
        <mxCell id="hzOA_SDY9-3CmLK2Qblx-10" style="edgeStyle=elbowEdgeStyle;rounded=0;orthogonalLoop=1;jettySize=auto;html=1;elbow=vertical;curved=0;" edge="1" parent="1" source="hzOA_SDY9-3CmLK2Qblx-8">
          <mxGeometry relative="1" as="geometry">
            <mxPoint x="160" y="320" as="targetPoint" />
            <Array as="points">
              <mxPoint x="340" y="320" />
            </Array>
          </mxGeometry>
        </mxCell>
        <mxCell id="hzOA_SDY9-3CmLK2Qblx-11" value="Required user to enter key words/select filter" style="edgeLabel;html=1;align=center;verticalAlign=middle;resizable=0;points=[];" vertex="1" connectable="0" parent="hzOA_SDY9-3CmLK2Qblx-10">
          <mxGeometry x="0.204" relative="1" as="geometry">
            <mxPoint x="42" as="offset" />
          </mxGeometry>
        </mxCell>
        <mxCell id="hzOA_SDY9-3CmLK2Qblx-12" style="edgeStyle=elbowEdgeStyle;rounded=0;orthogonalLoop=1;jettySize=auto;html=1;elbow=vertical;curved=0;dashed=1;" edge="1" parent="1" source="aM9ryv3xv72pqoxQDRHE-4" target="hzOA_SDY9-3CmLK2Qblx-7">
          <mxGeometry relative="1" as="geometry">
            <Array as="points">
              <mxPoint x="300" y="390" />
            </Array>
          </mxGeometry>
        </mxCell>
        <mxCell id="hzOA_SDY9-3CmLK2Qblx-13" value="Request to find" style="edgeLabel;html=1;align=center;verticalAlign=middle;resizable=0;points=[];" vertex="1" connectable="0" parent="hzOA_SDY9-3CmLK2Qblx-12">
          <mxGeometry x="-0.4243" relative="1" as="geometry">
            <mxPoint x="46" as="offset" />
          </mxGeometry>
        </mxCell>
        <mxCell id="hzOA_SDY9-3CmLK2Qblx-14" style="edgeStyle=elbowEdgeStyle;rounded=0;orthogonalLoop=1;jettySize=auto;html=1;elbow=horizontal;curved=0;entryX=0.5;entryY=0.5;entryDx=0;entryDy=0;entryPerimeter=0;" edge="1" parent="1" source="hzOA_SDY9-3CmLK2Qblx-8" target="aM9ryv3xv72pqoxQDRHE-6">
          <mxGeometry relative="1" as="geometry">
            <mxPoint x="680" y="430" as="targetPoint" />
            <Array as="points">
              <mxPoint x="573" y="430" />
            </Array>
          </mxGeometry>
        </mxCell>
        <mxCell id="hzOA_SDY9-3CmLK2Qblx-16" value="Conduct search" style="edgeLabel;html=1;align=center;verticalAlign=middle;resizable=0;points=[];" vertex="1" connectable="0" parent="hzOA_SDY9-3CmLK2Qblx-14">
          <mxGeometry x="-0.1712" relative="1" as="geometry">
            <mxPoint x="8" as="offset" />
          </mxGeometry>
        </mxCell>
        <mxCell id="hzOA_SDY9-3CmLK2Qblx-28" style="edgeStyle=elbowEdgeStyle;rounded=0;orthogonalLoop=1;jettySize=auto;html=1;elbow=vertical;curved=0;" edge="1" parent="1" source="hzOA_SDY9-3CmLK2Qblx-23" target="hzOA_SDY9-3CmLK2Qblx-27">
          <mxGeometry relative="1" as="geometry">
            <Array as="points">
              <mxPoint x="510" y="500" />
            </Array>
          </mxGeometry>
        </mxCell>
        <mxCell id="hzOA_SDY9-3CmLK2Qblx-29" value="Displays search results" style="edgeLabel;html=1;align=center;verticalAlign=middle;resizable=0;points=[];" vertex="1" connectable="0" parent="hzOA_SDY9-3CmLK2Qblx-28">
          <mxGeometry x="0.3" y="1" relative="1" as="geometry">
            <mxPoint x="23" y="-1" as="offset" />
          </mxGeometry>
        </mxCell>
        <mxCell id="hzOA_SDY9-3CmLK2Qblx-32" style="edgeStyle=elbowEdgeStyle;rounded=0;orthogonalLoop=1;jettySize=auto;html=1;elbow=vertical;curved=0;" edge="1" parent="1" source="hzOA_SDY9-3CmLK2Qblx-23" target="hzOA_SDY9-3CmLK2Qblx-30">
          <mxGeometry relative="1" as="geometry" />
        </mxCell>
        <mxCell id="hzOA_SDY9-3CmLK2Qblx-37" value="Show exception log and request user find another key words" style="edgeLabel;html=1;align=center;verticalAlign=middle;resizable=0;points=[];" vertex="1" connectable="0" parent="hzOA_SDY9-3CmLK2Qblx-32">
          <mxGeometry x="0.1761" y="1" relative="1" as="geometry">
            <mxPoint x="52" y="-1" as="offset" />
          </mxGeometry>
        </mxCell>
        <mxCell id="hzOA_SDY9-3CmLK2Qblx-33" style="rounded=0;orthogonalLoop=1;jettySize=auto;html=1;entryX=1;entryY=0.5;entryDx=0;entryDy=0;" edge="1" parent="1" source="hzOA_SDY9-3CmLK2Qblx-31" target="hzOA_SDY9-3CmLK2Qblx-31">
          <mxGeometry relative="1" as="geometry" />
        </mxCell>
        <mxCell id="hzOA_SDY9-3CmLK2Qblx-36" style="rounded=0;orthogonalLoop=1;jettySize=auto;html=1;entryX=1;entryY=0.5;entryDx=0;entryDy=0;dashed=1;dashPattern=1 4;endArrow=none;endFill=0;" edge="1" parent="1">
          <mxGeometry relative="1" as="geometry">
            <mxPoint x="770" y="540.42" as="targetPoint" />
            <mxPoint x="20" y="540" as="sourcePoint" />
          </mxGeometry>
        </mxCell>
        <mxCell id="hzOA_SDY9-3CmLK2Qblx-38" value="Matching" style="text;html=1;strokeColor=none;fillColor=none;align=center;verticalAlign=middle;whiteSpace=wrap;rounded=0;" vertex="1" parent="1">
          <mxGeometry x="30" y="485" width="60" height="30" as="geometry" />
        </mxCell>
        <mxCell id="hzOA_SDY9-3CmLK2Qblx-39" value="No result" style="text;html=1;strokeColor=none;fillColor=none;align=center;verticalAlign=middle;whiteSpace=wrap;rounded=0;" vertex="1" parent="1">
          <mxGeometry x="30" y="590" width="60" height="30" as="geometry" />
        </mxCell>
      </root>
    </mxGraphModel>
  </diagram>
</mxfile>
